<mxfile host="app.diagrams.net" modified="2024-01-02T03:01:12.729Z" agent="Mozilla/5.0 (Windows NT 10.0; Win64; x64) AppleWebKit/537.36 (KHTML, like Gecko) Chrome/120.0.0.0 Safari/537.36" version="22.1.16" etag="MPd0h7uYs2nnQmThIwo0" type="github">
  <diagram name="Page-1" id="onbKU_juD_TD0_l5XJKY">
    <mxGraphModel>
      <root>
        <mxCell id="0" />
        <mxCell id="1" parent="0" />
      </root>
    </mxGraphModel>
  </diagram>
</mxfile>
